HIERARCHY
ROOT Root
{
  OFFSET 0.0 0.0 0.0
  CHANNELS 6 Xposition Yposition Zposition Zrotation Yrotation Xrotation
  JOINT Hips
  {
    OFFSET 0.0 100.0 0.0
    CHANNELS 6 Xposition Yposition Zposition Zrotation Yrotation Xrotation
    JOINT Spine1
    {
      OFFSET 5.003913 -0.037094 -0.013727
      CHANNELS 3 Zrotation Yrotation Xrotation
      JOINT Spine2
      {
        OFFSET 7.125363 -1e-06 0.0
        CHANNELS 3 Zrotation Yrotation Xrotation
        JOINT Chest
        {
          OFFSET 7.594027 1e-06 0.0
          CHANNELS 3 Zrotation Yrotation Xrotation
          JOINT Neck1
          {
            OFFSET 26.313086 -0.460272 -0.181672
            CHANNELS 3 Zrotation Yrotation Xrotation
            JOINT Neck2
            {
              OFFSET 8.045911 0.0 0.0
              CHANNELS 3 Zrotation Yrotation Xrotation
              JOINT Head
              {
                OFFSET 6.432774 0.0 0.0
                CHANNELS 3 Zrotation Yrotation Xrotation
                JOINT HeadEnd
                {
                  OFFSET 16.169773 0.06451 0.00362
                  CHANNELS 3 Zrotation Yrotation Xrotation
                }
                JOINT Jaw
                {
                  OFFSET 0.108741 3.12938 0.002639
                  CHANNELS 3 Zrotation Yrotation Xrotation
                }
                JOINT LeftEye
                {
                  OFFSET 4.45173 8.166359 3.206392
                  CHANNELS 3 Zrotation Yrotation Xrotation
                }
                JOINT RightEye
                {
                  OFFSET 4.436895 8.135758 -3.222429
                  CHANNELS 3 Zrotation Yrotation Xrotation
                }
              }
            }
          }
          JOINT LeftShoulder
          {
            OFFSET 23.218927 5.195579 1.621656
            CHANNELS 3 Zrotation Yrotation Xrotation
            JOINT LeftArm
            {
              OFFSET 15.902118 2e-06 -2e-06
              CHANNELS 3 Zrotation Yrotation Xrotation
              JOINT LeftForeArm
              {
                OFFSET 28.739307 0.0 -1e-06
                CHANNELS 3 Zrotation Yrotation Xrotation
                JOINT LeftHand
                {
                  OFFSET 27.093981 -4e-06 0.0
                  CHANNELS 3 Zrotation Yrotation Xrotation
                  JOINT LeftHandThumb1
                  {
                    OFFSET 2.276781 3.380274 0.83384
                    CHANNELS 3 Zrotation Yrotation Xrotation
                    JOINT LeftHandThumb2
                    {
                      OFFSET 4.705309 -1e-06 -1e-06
                      CHANNELS 3 Zrotation Yrotation Xrotation
                      JOINT LeftHandThumb3
                      {
                        OFFSET 2.798515 0.0 3e-06
                        CHANNELS 3 Zrotation Yrotation Xrotation
                        JOINT LeftHandThumbEnd
                        {
                          OFFSET 3.180793 4e-06 -4e-06
                          CHANNELS 3 Zrotation Yrotation Xrotation
                        }
                      }
                    }
                  }
                  JOINT LeftHandIndex1
                  {
                    OFFSET 3.247786 2.352677 0.137192
                    CHANNELS 3 Zrotation Yrotation Xrotation
                    JOINT LeftHandIndex2
                    {
                      OFFSET 6.367095 1e-06 0.0
                      CHANNELS 3 Zrotation Yrotation Xrotation
                      JOINT LeftHandIndex3
                      {
                        OFFSET 3.662364 0.0 0.0
                        CHANNELS 3 Zrotation Yrotation Xrotation
                        JOINT LeftHandIndex4
                        {
                          OFFSET 2.329242 4e-06 -4e-06
                          CHANNELS 3 Zrotation Yrotation Xrotation
                          JOINT LeftHandIndexEnd
                          {
                            OFFSET 2.767823 1e-06 0.0
                            CHANNELS 3 Zrotation Yrotation Xrotation
                          }
                        }
                      }
                    }
                  }
                  JOINT LeftHandMiddle1
                  {
                    OFFSET 3.163612 0.945023 -0.406112
                    CHANNELS 3 Zrotation Yrotation Xrotation
                    JOINT LeftHandMiddle2
                    {
                      OFFSET 6.276789 3e-06 0.0
                      CHANNELS 3 Zrotation Yrotation Xrotation
                      JOINT LeftHandMiddle3
                      {
                        OFFSET 4.35652 -1e-06 4e-06
                        CHANNELS 3 Zrotation Yrotation Xrotation
                        JOINT LeftHandMiddle4
                        {
                          OFFSET 2.996877 0.0 8e-06
                          CHANNELS 3 Zrotation Yrotation Xrotation
                          JOINT LeftHandMiddleEnd
                          {
                            OFFSET 2.323256 3e-06 -4e-06
                            CHANNELS 3 Zrotation Yrotation Xrotation
                          }
                        }
                      }
                    }
                  }
                  JOINT LeftHandRing1
                  {
                    OFFSET 2.882606 -0.309162 0.107445
                    CHANNELS 3 Zrotation Yrotation Xrotation
                    JOINT LeftHandRing2
                    {
                      OFFSET 6.033198 0.0 4e-06
                      CHANNELS 3 Zrotation Yrotation Xrotation
                      JOINT LeftHandRing3
                      {
                        OFFSET 4.350578 3e-06 0.0
                        CHANNELS 3 Zrotation Yrotation Xrotation
                        JOINT LeftHandRing4
                        {
                          OFFSET 2.651321 2e-06 -7e-06
                          CHANNELS 3 Zrotation Yrotation Xrotation
                          JOINT LeftHandRingEnd
                          {
                            OFFSET 1.937663 1e-06 -4e-06
                            CHANNELS 3 Zrotation Yrotation Xrotation
                          }
                        }
                      }
                    }
                  }
                  JOINT LeftHandPinky1
                  {
                    OFFSET 2.865315 -1.525436 0.575687
                    CHANNELS 3 Zrotation Yrotation Xrotation
                    JOINT LeftHandPinky2
                    {
                      OFFSET 5.54936 1e-06 -8e-06
                      CHANNELS 3 Zrotation Yrotation Xrotation
                      JOINT LeftHandPinky3
                      {
                        OFFSET 3.070974 0.0 -4e-06
                        CHANNELS 3 Zrotation Yrotation Xrotation
                        JOINT LeftHandPinky4
                        {
                          OFFSET 1.549672 1e-06 0.0
                          CHANNELS 3 Zrotation Yrotation Xrotation
                          JOINT LeftHandPinkyEnd
                          {
                            OFFSET 1.952123 0.0 0.0
                            CHANNELS 3 Zrotation Yrotation Xrotation
                          }
                        }
                      }
                    }
                  }
                }
              }
            }
          }
          JOINT RightShoulder
          {
            OFFSET 23.161716 5.296122 -1.380114
            CHANNELS 3 Zrotation Yrotation Xrotation
            JOINT RightArm
            {
              OFFSET -16.027195 -2e-06 1.1e-05
              CHANNELS 3 Zrotation Yrotation Xrotation
              JOINT RightForeArm
              {
                OFFSET -28.736639 4e-06 2e-06
                CHANNELS 3 Zrotation Yrotation Xrotation
                JOINT RightHand
                {
                  OFFSET -27.133619 6e-06 0.0
                  CHANNELS 3 Zrotation Yrotation Xrotation
                  JOINT RightHandThumb1
                  {
                    OFFSET -2.274328 -3.351035 -0.83067
                    CHANNELS 3 Zrotation Yrotation Xrotation
                    JOINT RightHandThumb2
                    {
                      OFFSET -4.703594 -3e-06 2e-06
                      CHANNELS 3 Zrotation Yrotation Xrotation
                      JOINT RightHandThumb3
                      {
                        OFFSET -2.794935 -4e-06 -3e-06
                        CHANNELS 3 Zrotation Yrotation Xrotation
                        JOINT RightHandThumbEnd
                        {
                          OFFSET -3.183852 4e-06 1e-06
                          CHANNELS 3 Zrotation Yrotation Xrotation
                        }
                      }
                    }
                  }
                  JOINT RightHandIndex1
                  {
                    OFFSET -3.253496 -2.33755 -0.127667
                    CHANNELS 3 Zrotation Yrotation Xrotation
                    JOINT RightHandIndex2
                    {
                      OFFSET -6.344434 0.0 0.0
                      CHANNELS 3 Zrotation Yrotation Xrotation
                      JOINT RightHandIndex3
                      {
                        OFFSET -3.654871 0.0 -8e-06
                        CHANNELS 3 Zrotation Yrotation Xrotation
                        JOINT RightHandIndex4
                        {
                          OFFSET -2.327586 -1e-06 0.0
                          CHANNELS 3 Zrotation Yrotation Xrotation
                          JOINT RightHandIndexEnd
                          {
                            OFFSET -2.770001 3e-06 8e-06
                            CHANNELS 3 Zrotation Yrotation Xrotation
                          }
                        }
                      }
                    }
                  }
                  JOINT RightHandMiddle1
                  {
                    OFFSET -3.168223 -0.944764 0.411762
                    CHANNELS 3 Zrotation Yrotation Xrotation
                    JOINT RightHandMiddle2
                    {
                      OFFSET -6.266691 -1e-06 -4e-06
                      CHANNELS 3 Zrotation Yrotation Xrotation
                      JOINT RightHandMiddle3
                      {
                        OFFSET -4.348901 0.0 0.0
                        CHANNELS 3 Zrotation Yrotation Xrotation
                        JOINT RightHandMiddle4
                        {
                          OFFSET -3.00024 2e-06 -4e-06
                          CHANNELS 3 Zrotation Yrotation Xrotation
                          JOINT RightHandMiddleEnd
                          {
                            OFFSET -2.321477 -4e-06 -4e-06
                            CHANNELS 3 Zrotation Yrotation Xrotation
                          }
                        }
                      }
                    }
                  }
                  JOINT RightHandRing1
                  {
                    OFFSET -2.885654 0.293261 -0.119232
                    CHANNELS 3 Zrotation Yrotation Xrotation
                    JOINT RightHandRing2
                    {
                      OFFSET -6.032835 -1e-06 -4e-06
                      CHANNELS 3 Zrotation Yrotation Xrotation
                      JOINT RightHandRing3
                      {
                        OFFSET -4.33881 0.0 -4e-06
                        CHANNELS 3 Zrotation Yrotation Xrotation
                        JOINT RightHandRing4
                        {
                          OFFSET -2.654903 -4e-06 -4e-06
                          CHANNELS 3 Zrotation Yrotation Xrotation
                          JOINT RightHandRingEnd
                          {
                            OFFSET -1.935122 0.0 4e-06
                            CHANNELS 3 Zrotation Yrotation Xrotation
                          }
                        }
                      }
                    }
                  }
                  JOINT RightHandPinky1
                  {
                    OFFSET -2.866241 1.503904 -0.60527
                    CHANNELS 3 Zrotation Yrotation Xrotation
                    JOINT RightHandPinky2
                    {
                      OFFSET -5.553177 -2e-06 0.0
                      CHANNELS 3 Zrotation Yrotation Xrotation
                      JOINT RightHandPinky3
                      {
                        OFFSET -3.062664 -1e-06 -4e-06
                        CHANNELS 3 Zrotation Yrotation Xrotation
                        JOINT RightHandPinky4
                        {
                          OFFSET -1.546529 2e-06 4e-06
                          CHANNELS 3 Zrotation Yrotation Xrotation
                          JOINT RightHandPinkyEnd
                          {
                            OFFSET -1.952341 0.0 -4e-06
                            CHANNELS 3 Zrotation Yrotation Xrotation
                          }
                        }
                      }
                    }
                  }
                }
              }
            }
          }
        }
      }
    }
    JOINT LeftLeg
    {
      OFFSET -8.443107 2.567604 10.043214
      CHANNELS 3 Zrotation Yrotation Xrotation
      JOINT LeftShin
      {
        OFFSET 43.229198 1e-06 -1e-06
        CHANNELS 3 Zrotation Yrotation Xrotation
        JOINT LeftFoot
        {
          OFFSET 42.298611 1e-06 1e-06
          CHANNELS 3 Zrotation Yrotation Xrotation
          JOINT LeftToeBase
          {
            OFFSET 14.165858 1e-06 0.0
            CHANNELS 3 Zrotation Yrotation Xrotation
            JOINT LeftToeEnd
            {
              OFFSET 6.7141 -0.234461 0.0
              CHANNELS 3 Zrotation Yrotation Xrotation
            }
          }
        }
      }
    }
    JOINT RightLeg
    {
      OFFSET -8.303923 2.592729 -10.047278
      CHANNELS 3 Zrotation Yrotation Xrotation
      JOINT RightShin
      {
        OFFSET -43.369682 0.0 1e-06
        CHANNELS 3 Zrotation Yrotation Xrotation
        JOINT RightFoot
        {
          OFFSET -42.260784 4e-06 2e-06
          CHANNELS 3 Zrotation Yrotation Xrotation
          JOINT RightToeBase
          {
            OFFSET -14.222245 -2e-06 -1e-06
            CHANNELS 3 Zrotation Yrotation Xrotation
            JOINT RightToeEnd
            {
              OFFSET -6.660062 0.232574 -2e-06
              CHANNELS 3 Zrotation Yrotation Xrotation
            }
          }
        }
      }
    }
  }
}
MOTION
Frames: 5
Frame Time: 0.03333333333333333
0.0 0.0 0.0 0.0 -0.0 0.0 -242.083145 93.665916 -163.942947 90.030449 -17.312136 -176.985489 4.159746 -5.287568 -2.41417 -9.531824 -2.513146 -5.28113 20.080072 -3.678037 -9.081659 31.246252 -0.63486 2.25261 -2.733334 -0.096463 -2.720762 -35.509998 1.110394 -3.596349 6e-06 0.0 2e-06 -0.068784 0.004982 0.206805 -0.142287 0.030738 0.18168 -0.13372 -0.019279 0.25786 -87.079842 -82.317474 102.266479 25.808903 -50.856728 2.976214 96.288673 0.640827 0.151848 9.87717 8.399755 9.094384 17.636637 -26.322737 52.41119 -19.466665 -14.395606 29.410389 -1e-06 -8.774824 -1e-06 15.678443 -18.282101 5.990977 -0.609778 -1.795652 -3.889328 -4.807088 -11.046811 -2.93785 8e-06 -20.976021 0.0 -5.01997 -25.03356 -4.031879 5e-06 0.0 -0.0 -10.634538 -5.686968 -3.565584 10.573278 -17.922951 -3.1139 4e-06 -13.821209 2e-06 -0.501779 -31.181501 -4.027011 -10.676764 -58.607758 6.652627 -13.982714 -7.150195 -2.875041 13.772734 -8.401495 -3.218242 0.347735 -34.211555 0.771659 -0.963032 -17.733372 2.621022 0.0 0.0 0.0 -17.346422 -20.095217 -4.201779 21.757566 -1.638378 3.866427 2e-06 -6.338826 2e-06 -1.697589 -22.591749 -6.194005 0.0 -5e-06 -2e-06 82.035339 -63.993977 123.030136 -19.955273 -50.462658 36.097813 63.880676 0.36497 1.628682 20.236137 1.437738 -0.175442 22.182116 -20.375896 49.933315 -16.701813 -16.74353 28.476528 -3e-06 -12.690601 -1e-06 16.163553 -17.771749 3.083086 -0.10592 -1.513855 -4.275881 -5.039039 -5.612871 -2.953556 5e-06 -11.020524 -1e-06 -6.111298 -15.89533 -3.84047 -1e-06 -1e-06 -0.0 -10.28337 -5.680287 -4.341838 11.028294 -11.302406 -2.372633 -1.384269 -14.238581 -6.32012 -0.625439 -26.924191 -3.8276 -4.082576 -50.730927 -3.267022 -13.708523 -7.363474 -3.720939 18.141148 -14.052737 -3.242673 6e-06 -18.78727 -1e-06 -0.429713 -8.45604 2.555504 -2e-06 -0.0 -0.0 -15.923534 -20.094482 -5.473584 30.419207 -7.190826 1.735926 3e-06 -8.162925 -0.0 -1.861903 -22.861471 -6.167939 1e-06 -4e-06 -2e-06 -156.992142 -2.751369 -4.553176 25.856909 -1.018843 1.361008 -36.798874 2.056498 -27.329638 -9.6248 1.449694 2.928591 -0.999999 -1e-06 2e-06 -32.940048 -1.858124 -14.808804 23.790464 0.536639 -1.292514 -82.143211 -15.875874 -3.946227 -11.179789 1.325873 1.31366 -1.000001 -1e-06 1e-06 
0.0 0.0 0.0 0.0 -0.0 0.0 -232.72464 92.563789 -163.525421 91.332832 -18.425592 178.624329 3.716254 -4.853399 -1.699157 -9.370282 -2.548271 -4.2907 19.403292 -4.709321 -8.303924 31.354622 -1.08658 2.414726 -2.618699 -0.519971 -2.816108 -35.778137 1.479577 -4.047446 6e-06 -0.0 -0.0 -0.037175 0.023265 0.302133 -0.094169 0.0281 0.284812 -0.061363 0.016623 0.348306 -98.866928 -79.999695 115.239197 21.47513 -54.388386 7.791086 91.601082 0.742663 -0.024676 10.951944 7.534007 7.031857 17.636625 -26.322729 52.411194 -19.466663 -14.395594 29.410389 -1e-06 -8.774821 -1e-06 15.525626 -18.425146 6.001948 -0.609777 -1.795656 -3.889329 -4.807086 -11.046807 -2.937852 6e-06 -20.976019 -1e-06 -5.019971 -25.033558 -4.031879 6e-06 -0.0 0.0 -10.634533 -5.686969 -3.565589 10.573274 -17.922955 -3.113902 3e-06 -13.821203 1e-06 -0.501776 -31.181498 -4.027014 -10.649112 -58.293964 6.482337 -13.98271 -7.150198 -2.875045 13.772727 -8.401489 -3.218243 0.347736 -34.211544 0.771651 -0.963029 -17.733366 2.621018 0.0 -1e-06 -0.0 -17.346411 -20.095213 -4.201784 21.757551 -1.638378 3.866426 1e-06 -6.338822 1e-06 -1.697589 -22.591738 -6.194004 2e-06 -5e-06 -2e-06 81.323395 -64.196487 123.133148 -16.596825 -50.097435 32.219456 64.421265 0.713417 0.657172 22.014708 2.053288 -4.520938 22.182114 -20.375895 49.933319 -16.701817 -16.74353 28.476532 -4e-06 -12.6906 -1e-06 15.732555 -17.835991 3.252212 -0.105919 -1.513857 -4.27588 -5.039041 -5.612871 -2.953556 6e-06 -11.020523 -3e-06 -6.111296 -15.89533 -3.840471 1e-06 -2e-06 0.0 -10.283369 -5.680288 -4.341838 11.028293 -11.302404 -2.372633 -1.384268 -14.238579 -6.320119 -0.625437 -26.924183 -3.827598 -3.994125 -50.218357 -3.599286 -13.708524 -7.363476 -3.720939 18.14115 -14.052739 -3.242676 7e-06 -18.78727 -2e-06 -0.42971 -8.456042 2.555503 -0.0 0.0 1e-06 -15.923532 -20.094482 -5.473584 30.41921 -7.190827 1.735924 2e-06 -8.162925 -1e-06 -1.8619 -22.861469 -6.167941 1e-06 -3e-06 -1e-06 -163.669922 -2.854567 -6.651533 44.278728 -1.176504 0.899567 -37.293461 5.432305 -24.941442 -7.049287 1.274128 3.245236 -0.999999 -2e-06 -1e-06 -28.765249 -0.002547 -15.514138 24.799973 1.079772 -1.790674 -80.415268 -17.388403 7.924621 -9.043797 1.069599 1.557833 -1.000001 1e-06 -0.0 
0.0 0.0 0.0 0.0 -0.0 0.0 -224.111801 90.753677 -162.331024 91.990211 -15.087103 173.228485 4.125605 -2.409252 -0.517835 -9.293876 -2.094787 -3.154166 18.956438 -3.656992 -6.86157 30.194973 -1.424464 2.716343 -2.600235 -0.777489 -2.822811 -38.531391 1.742279 -4.766735 6e-06 -1e-06 1e-06 -0.018676 0.067315 0.221658 -0.079603 0.070498 0.203541 -0.057748 0.063167 0.266791 -106.240616 -76.426231 124.041786 17.182724 -57.765888 9.027637 85.222069 0.332981 0.218527 11.785395 9.197084 6.691404 17.636635 -26.322737 52.411194 -19.466648 -14.395596 29.410381 -3e-06 -8.774817 -2e-06 15.707572 -18.588055 6.046255 -0.609776 -1.795654 -3.889326 -4.807087 -11.046811 -2.937848 4e-06 -20.976021 3e-06 -5.019974 -25.03356 -4.031878 8e-06 -1e-06 -0.0 -10.634535 -5.686976 -3.565583 10.573271 -17.922951 -3.1139 1e-06 -13.821208 2e-06 -0.501781 -31.181505 -4.027012 -10.502795 -59.318077 6.564327 -13.982711 -7.150198 -2.875043 13.772725 -8.401492 -3.21824 0.34773 -34.211555 0.771659 -0.963031 -17.733372 2.621021 1e-06 0.0 1e-06 -17.346413 -20.095215 -4.201779 21.757555 -1.638375 3.866429 1e-06 -6.338822 -1e-06 -1.69759 -22.591743 -6.194005 -0.0 -4e-06 -1e-06 77.276146 -65.837723 125.993317 -7.814623 -49.070915 24.838356 62.735966 0.752442 0.181716 23.422129 2.574377 -7.162885 22.182119 -20.375904 49.933319 -16.701811 -16.74353 28.47653 -2e-06 -12.690601 -2e-06 15.705729 -18.11623 3.058084 -0.10592 -1.513855 -4.275882 -5.039041 -5.612872 -2.953555 6e-06 -11.020525 -1e-06 -6.1113 -15.895338 -3.840469 -0.0 1e-06 1e-06 -10.283369 -5.680288 -4.341837 11.028294 -11.302406 -2.372632 -1.38427 -14.238581 -6.320119 -0.625441 -26.924191 -3.827598 -3.979007 -50.331322 -3.802381 -13.708524 -7.363476 -3.720939 18.141151 -14.052739 -3.242675 3e-06 -18.787271 1e-06 -0.429711 -8.456045 2.555505 1e-06 -1e-06 -1e-06 -15.923532 -20.094484 -5.473583 30.41921 -7.190826 1.735927 2e-06 -8.162927 -1e-06 -1.861905 -22.861469 -6.16794 0.0 -1e-06 -0.0 -173.393616 -9.700633 -11.626524 64.332161 -0.739866 0.481825 -43.300262 4.752396 -21.490959 -7.842072 1.297947 3.119504 -0.999999 0.0 -0.0 -25.287573 6.625493 -13.2548 30.727877 1.357913 -2.286697 -87.507164 -20.896484 23.819529 -6.752226 0.691353 1.661157 -1.000002 1e-06 -0.0 
0.0 0.0 0.0 0.0 -0.0 0.0 -215.322113 89.574951 -160.86647 92.094055 -9.775447 167.624512 5.15746 0.285517 0.38152 -9.105417 -1.242199 -1.9987 19.598562 -1.177002 -5.03206 28.070541 -1.941166 2.605625 -2.695038 -0.600835 -2.434237 -42.285397 1.770061 -5.315578 6e-06 -1e-06 1e-06 -0.029897 0.045666 0.165771 -0.058138 0.111101 0.151276 -0.085863 -0.015875 0.208784 -107.102303 -72.355637 127.246948 14.237186 -61.027351 7.164807 79.870163 -0.500022 0.038503 12.672817 12.854159 10.287305 17.636633 -26.322735 52.411198 -19.466661 -14.395597 29.410389 -3e-06 -8.774819 -1e-06 15.698108 -18.516338 6.291226 -0.609776 -1.795654 -3.889329 -4.807086 -11.046809 -2.93785 8e-06 -20.976015 -3e-06 -5.019967 -25.033558 -4.031881 6e-06 0.0 -2e-06 -10.634533 -5.686969 -3.565587 10.573274 -17.922949 -3.1139 4e-06 -13.821205 1e-06 -0.501775 -31.181505 -4.027014 -10.899364 -60.299351 7.407436 -13.982714 -7.150196 -2.875043 13.77273 -8.401495 -3.218243 0.347736 -34.211552 0.771655 -0.963028 -17.73337 2.621021 2e-06 0.0 0.0 -17.346415 -20.095215 -4.201786 21.757557 -1.638378 3.866426 2e-06 -6.338823 0.0 -1.697588 -22.591742 -6.194006 -0.0 -4e-06 -2e-06 76.130768 -69.161934 125.760002 5.476608 -47.978779 15.416012 60.1101 -0.161168 0.118965 24.388767 3.302375 -4.738405 22.182116 -20.375893 49.933319 -16.701813 -16.743526 28.47653 -3e-06 -12.690601 -1e-06 15.77874 -18.44261 2.899713 -0.105915 -1.513856 -4.275881 -5.039043 -5.612871 -2.953557 3e-06 -11.020523 -1e-06 -6.111297 -15.89533 -3.84047 -1e-06 1e-06 0.0 -10.283365 -5.680287 -4.341839 11.028292 -11.302404 -2.372633 -1.384268 -14.238579 -6.320121 -0.625435 -26.924187 -3.827602 -4.646563 -50.318783 -3.749492 -13.708516 -7.363474 -3.720941 18.141144 -14.052738 -3.242674 6e-06 -18.787266 -1e-06 -0.42971 -8.456046 2.555502 0.0 0.0 0.0 -15.923528 -20.094482 -5.473586 30.419205 -7.190825 1.735926 2e-06 -8.162924 0.0 -1.8619 -22.861467 -6.167942 -0.0 -2e-06 0.0 175.188614 -18.502964 -12.576105 78.852913 -0.304976 0.09829 -51.580334 -1.367942 -17.21516 -8.786282 1.388659 2.767257 -0.999999 -1e-06 -0.0 -19.852324 14.351953 -10.311882 34.418465 1.307563 -2.532853 -95.928986 -21.558184 27.446367 -5.741168 0.64062 1.647678 -1.000003 -1e-06 -0.0 
0.0 0.0 0.0 0.0 -0.0 0.0 -206.363541 89.549736 -158.650284 92.482063 -8.936604 163.514099 5.631052 0.250695 0.795935 -8.878062 -1.045495 -0.640203 20.069429 -0.853255 -3.248056 27.42408 -0.604403 2.65156 -2.634789 -0.546556 -2.874326 -42.599064 1.861353 -6.880291 6e-06 1e-06 0.0 -0.014109 0.026247 0.201562 0.022069 0.071102 0.214634 -0.025336 -0.011635 0.219847 -103.352173 -69.948242 125.167519 5.719564 -61.524563 14.555936 80.102386 0.69719 -0.242171 12.343909 16.091696 13.569525 17.636637 -26.322746 52.411213 -19.466663 -14.395598 29.410389 -0.0 -8.774822 -3e-06 15.714052 -18.492723 6.683149 -0.609777 -1.795655 -3.889327 -4.807087 -11.046811 -2.937852 3e-06 -20.976019 1e-06 -5.01997 -25.03356 -4.031878 6e-06 1e-06 0.0 -10.634535 -5.686973 -3.565591 10.573276 -17.922955 -3.113898 3e-06 -13.82121 1e-06 -0.501777 -31.181511 -4.027016 -11.852067 -60.668835 8.621758 -13.982716 -7.150198 -2.875047 13.772728 -8.401494 -3.218239 0.347736 -34.211555 0.771659 -0.963032 -17.73337 2.621023 1e-06 -0.0 -0.0 -17.34642 -20.095221 -4.201783 21.757561 -1.638376 3.86643 1e-06 -6.338825 0.0 -1.697589 -22.591745 -6.194008 -0.0 -4e-06 -1e-06 77.50367 -72.667519 122.800941 15.097433 -47.130474 9.711178 63.367722 -0.746209 0.092819 23.286041 5.080797 2.627856 22.182123 -20.375902 49.933327 -16.701817 -16.74353 28.476536 -3e-06 -12.690603 -2e-06 16.286272 -18.529358 2.433533 -0.105922 -1.513857 -4.275882 -5.039041 -5.612873 -2.953558 7e-06 -11.020525 -2e-06 -6.111297 -15.895334 -3.84047 -1e-06 -1e-06 -1e-06 -10.283371 -5.680288 -4.341841 11.028296 -11.302407 -2.372632 -1.384268 -14.238585 -6.320121 -0.625436 -26.924194 -3.827602 -5.679337 -50.01968 -3.04648 -13.708527 -7.363477 -3.720942 18.141151 -14.052742 -3.242676 5e-06 -18.78727 -3e-06 -0.429712 -8.456044 2.555505 1e-06 -0.0 0.0 -15.923536 -20.094486 -5.473589 30.419218 -7.190829 1.735926 1e-06 -8.162929 0.0 -1.861901 -22.861475 -6.167942 -0.0 -3e-06 -1e-06 162.895172 -19.699114 -9.380776 83.590675 -0.346024 0.053212 -61.129154 -7.273222 -15.039206 -9.582055 1.598804 2.393894 -0.999999 1e-06 0.0 -10.920337 16.273294 -6.462245 32.41415 1.291546 -2.443563 -100.738426 -19.241705 27.714388 -5.859044 0.722245 1.655532 -1.000001 2e-06 0.0 
